<?xml version="1.0" encoding="iso-8859-1"?>
<!-- Generator: Adobe Illustrator 17.1.0, SVG Export Plug-In . SVG Version: 6.00 Build 0)  -->
<!DOCTYPE svg PUBLIC "-//W3C//DTD SVG 1.1//EN" "http://www.w3.org/Graphics/SVG/1.1/DTD/svg11.dtd">
<svg version="1.1" id="Layer_1" xmlns="http://www.w3.org/2000/svg" xmlns:xlink="http://www.w3.org/1999/xlink" x="0px" y="0px"
	 viewBox="0 0 64 64" style="enable-background:new 0 0 64 64;" xml:space="preserve">
<path d="M42,38.312c-1.625-0.5-4.313-3.688-4.313-3.688C39.312,32.375,47,32.312,47,32.312c-1.938-3.062-8.875-1.25-11.5-1.875
	s-2.188-1.688-2.188-1.688C36.125,26.062,43,25.516,43,25.516s1.516,0.156,0-0.703C39.062,22.58,32.75,26,30,25.188
	S26.875,23,26.875,23c2.062-1.188,5.5-1.75,5.5-1.75c2.375-0.5,7.125-2-3-8S12.25,11.125,12.25,11.125l-0.156,0.25
	c0,0-3.97,6.756,2.267,17.28s7.796,5.587,8.316,3.118c0,0,0.303-3.44,1.386-6.211c0,0,1.862,0.884,2.707,3.742
	s-2.71,9.42-0.39,13.513c0.893,1.575,0.731,0,0.731,0s0.568-7.146,3.362-10.07c0,0,1.104-0.455,1.754,2.274
	c0.65,2.729-1.234,9.94,1.949,11.954c0,0,0.065-7.991,2.404-9.68c0,0,3.313,2.793,3.833,4.483c0.52,1.689-3.313,10.265,4.158,15.657
	c1.754-0.065,3.638-10.394,3.638-11.629l0.31-0.377c3.332-0.621,10.5-2.901,10.545-4.117C53.875,34.125,43.625,38.812,42,38.312z"/>
</svg>
